<svg width="14" height="13" viewBox="0 0 14 13" fill="none" xmlns="http://www.w3.org/2000/svg">
<path d="M5.5 12.9C6.68666 12.4333 6.42666 11.1467 5.82666 10.3333C5.23333 9.5 4.41333 8.92666 3.58666 8.37333C3 8 2.46 7.53333 2.02666 7C1.84 6.78 1.46 6.37333 1.84666 6.29333C2.24 6.21333 2.92 6.6 3.26666 6.74666C3.87333 7 4.47333 7.29333 5.03333 7.64L5.70666 6.50666C4.66666 5.82 3.33333 5.21333 2.09333 5.03333C1.38666 4.92666 0.639995 5.07333 0.399995 5.84C0.186662 6.5 0.526662 7.16666 0.913329 7.68666C1.82666 8.90666 3.24666 9.49333 4.30666 10.5467C4.53333 10.7667 4.80666 11.0267 4.94 11.3333C5.08 11.6267 5.04666 11.6467 4.73333 11.6467C3.90666 11.6467 2.87333 11 2.2 10.5733L1.52666 11.7067C2.54666 12.3333 4.25333 13.3133 5.5 12.9ZM11.64 3.88666L7.86 7.66666H6.33333V6.14L10.1133 2.35333L11.64 3.88666ZM13.9067 3.36666C13.9 3.56666 13.6933 3.77333 13.48 3.97999L11.8 5.66666L11.22 5.08666L12.9533 3.35999L12.56 2.96666L12.1133 3.41333L10.5867 1.88666L12.02 0.453328C12.18 0.293328 12.44 0.293328 12.5933 0.453328L13.5467 1.40666C13.7067 1.55333 13.7067 1.81999 13.5467 1.97999C13.4067 2.11999 13.2733 2.25333 13.2733 2.38666C13.26 2.51999 13.3933 2.66666 13.5267 2.78C13.72 2.98 13.9133 3.16666 13.9067 3.36666Z" fill="black"/>
</svg>
